<svg width="2376" height="4000" viewBox="0 0 2376 4000" fill="none" xmlns="http://www.w3.org/2000/svg">
<g id="ritosRemotePage">
<rect id="refBgBox" width="2376" height="4000" fill="black"></rect>
<g id="frame">
<path id="Subtract" opacity="0.7" fill-rule="evenodd" clip-rule="evenodd" d="M643 3328H0V3800C0 3910.46 89.5431 4000 200 4000H643V3889H628C550.68 3889 488 3826.32 488 3749V3374H643V3328ZM673 3889V4000H2293V3889H673ZM673 3374V3328H2293V3374H673ZM2311 4000V3889H2376V4000H2311ZM2311 3328V3374H2376V3328H2311Z" fill="#DF8313"></path>
<g id="Group 54">
<path id="rect" d="M0 2596H488V3292H0V2596Z" fill="#FFE359"></path>
<path id="rect_2" opacity="0.7" d="M0 2187H488V2256H0V2187Z" fill="#FFF5C7"></path>
<text id="buildVersion" fill="black" xml:space="preserve" style="white-space:pre" font-family="Oswald" font-size="54" font-weight="500" letter-spacing="0em"><tspan x="450.293" y="3753.41">.</tspan></text>
<text id="build" fill="black" xml:space="preserve" style="white-space:pre" font-family="Oswald" font-size="54" font-weight="500" letter-spacing="0em"><tspan x="147.879" y="3593.41">RITOS REMOTE </tspan><tspan x="324.697" y="3673.41">BUILD</tspan></text>
<path id="rect_3" d="M0 2276H488V2570H0V2276Z" fill="#DA9A4D"></path>
<path id="rect_4" d="M0 1871H488V2165H0V1871Z" fill="#DF8313"></path>
<text id="shipDataNode" fill="black" xml:space="preserve" style="white-space:pre" font-family="Oswald" font-size="54" font-weight="500" letter-spacing="0em"><tspan x="351.328" y="2795.41">SHIP&#10;</tspan><tspan x="193.916" y="2875.41">DATA NODES</tspan></text>
<text id="csIndex" fill="black" xml:space="preserve" style="white-space:pre" font-family="Oswald" font-size="60" font-weight="500" letter-spacing="0em"><tspan x="235.207" y="2410.62">CURRENT&#10;</tspan><tspan x="214.348" y="2479.62">C/S INDEX</tspan></text>
<text id="auth" fill="black" xml:space="preserve" style="white-space:pre" font-family="Oswald" font-size="80" font-weight="500" letter-spacing="0em"><tspan x="284.953" y="2123.66">AUTH</tspan></text>
<path id="Subtract_2" fill-rule="evenodd" clip-rule="evenodd" d="M488 1836H0V1536C0 1447.63 71.6344 1376 160 1376H643V1436H618C546.203 1436 488 1494.2 488 1566V1836Z" fill="#FFD300"></path>
<path id="Subtract_3" fill-rule="evenodd" clip-rule="evenodd" d="M2293 1376H1524V1412H1129V1436H2293V1376Z" fill="#FFE359"></path>
<rect id="rect_5" x="2311" y="1376" width="65" height="60" fill="#FFD300"></rect>
<rect id="rect_6" x="673" y="1376" width="434" height="60" fill="#FFD300"></rect>
</g>
<path id="Subtract_4" fill-rule="evenodd" clip-rule="evenodd" d="M488 410H0V1176C0 1264.37 71.6344 1336 160 1336H643V1276H618C546.203 1276 488 1217.8 488 1146V410Z" fill="#FFEC92"></path>
<path id="Subtract_5" fill-rule="evenodd" clip-rule="evenodd" d="M2293 1276H1129V1300H1524V1336H2293V1276Z" fill="#FFEC92"></path>
<rect id="rect_7" x="2311" y="1276" width="65" height="60" fill="#FFF5EB"></rect>
<rect id="rect_8" x="673" y="1276" width="434" height="60" fill="#FFE359"></rect>
<rect id="lcarsRect1" x="1141" y="1321" width="64" height="70" fill="#D34E03"></rect>
<rect id="btnAudio" y="64" width="488" height="301" fill="#DA9A4D"></rect>
<text id="audio" fill="black" xml:space="preserve" style="white-space:pre" font-family="Oswald" font-size="80" font-weight="500" letter-spacing="0em"><tspan x="254.562" y="322.66">AUDIO</tspan></text>
<text id="sysLogs" fill="black" xml:space="preserve" style="white-space:pre" font-family="Oswald" font-size="64" font-weight="500" letter-spacing="0.01em"><tspan x="257.3" y="555.428">SYSTEM&#10;</tspan><tspan x="321.33" y="650.428">LOGS</tspan></text>
<text id="s47" fill="black" xml:space="preserve" style="white-space:pre" font-family="Oswald" font-size="54" font-weight="500" letter-spacing="0em"><tspan x="365.303" y="1696.41">S.47</tspan></text>
</g>
<g id="content">
<g id="Group 57" opacity="0.3">
<path id="Vector 13" d="M997 3616C997 3616 1162 3616 1196.5 3616C1231 3616 1244 3629.5 1244 3663.25C1244 3697 1244 3736.5 1244 3753.5C1244 3770.5 1251.5 3792.5 1287 3792.5H1420" stroke="#FFE359" stroke-width="16"></path>
<path id="Vector 14" d="M1609.5 3751.5C1609.5 3751.5 1609.5 3712.5 1609.5 3687.5C1609.5 3662.5 1631 3643.5 1666.5 3643.5C1702 3643.5 1967.5 3643.5 1967.5 3643.5" stroke="#DA9A4D" stroke-width="12"></path>
<line id="Line 85" x1="991" y1="3787" x2="1229" y2="3787" stroke="#FFE359" stroke-width="8"></line>
<rect id="rect_9" x="781" y="3565" width="222" height="100" rx="50" fill="#DA9A4D"></rect>
<rect id="rect_10" x="1405" y="3741" width="391" height="100" rx="50" fill="#DF8313"></rect>
<rect id="rect_11" x="673" y="3741" width="331" height="100" rx="50" fill="#FFE359"></rect>
<rect id="rect_12" x="1962" y="3595" width="331" height="100" rx="50" fill="#FFF5C7"></rect>
</g>
<path id="Subtract_6" opacity="0.2" fill-rule="evenodd" clip-rule="evenodd" d="M514 2745H643V3292H514V2745ZM583 3156H623V3196H583V3156ZM623 3066H583V3106H623V3066Z" fill="#DA9A4D"></path>
<path id="btnMiniShip" opacity="0.15" d="M673 2745H2371V3292H673V2745Z" fill="#FFC996"></path>
<g id="grids">
<line id="Line 82" opacity="0.25" x1="673" y1="3020.5" x2="2373" y2="3020.5" stroke="#FFEC92" stroke-width="547" stroke-dasharray="5 40 2 43"></line>
<line id="Line 83" opacity="0.25" x1="1173" y1="2744" x2="1173" y2="3292" stroke="#FFEC92" stroke-width="1000" stroke-dasharray="5 40 2 43"></line>
<line id="Line 84" opacity="0.25" x1="2023" y1="2744" x2="2023" y2="3292" stroke="#FFEC92" stroke-width="700" stroke-dasharray="5 40 2 43"></line>
</g>
<g id="miniShip">
<g id="base">
<path fill-rule="evenodd" clip-rule="evenodd" d="M1901.33 2847H1747.05V2852.38C1747.05 2852.38 1720.83 2853.16 1666.99 2854.73C1653.94 2855.11 1639.79 2856.32 1619.82 2858.02C1601.8 2859.57 1579.04 2861.51 1548.07 2863.62C1544.3 2864.06 1539.4 2865.41 1533.86 2866.94C1525.66 2869.21 1516.06 2871.87 1506.63 2872.52C1495.71 2873.27 1485.15 2877.49 1474.67 2881.68C1465.88 2885.19 1457.15 2888.68 1448.31 2890.07C1446.5 2890.36 1430.58 2892.47 1411.87 2894.95L1411.86 2894.95C1384.59 2898.56 1351.37 2902.96 1347.21 2903.65C1340.18 2904.82 1340.18 2910.21 1340.18 2910.21V2929.17C1340.18 2929.17 1340.18 2931.98 1347.21 2933.38C1354.23 2934.79 1430.08 2940.9 1430.08 2940.9C1430.08 2940.9 1433.36 2945.09 1438.74 2945.56C1445.07 2946.11 1452.77 2948.08 1460.19 2949.97C1468.22 2952.02 1475.91 2953.98 1481.19 2953.98C1483.92 2953.98 1498.84 2954.87 1520.36 2956.14L1520.36 2956.14L1520.36 2956.14C1561.59 2958.57 1627.07 2962.44 1677.52 2964.29C1677.52 2964.29 1678.93 2969.9 1676.35 2973.65C1676.35 2973.65 1642.18 3018.83 1609.4 3063.31C1576.63 3107.79 1544.79 3107.79 1471.05 3107.79L1467.07 3110.37C1428.6 3110.33 1392.23 3110.36 1357.87 3110.44V3105.59L1366.25 3098.52V3091.46L1339.11 3086.6C1339.11 3086.6 1334.69 3078 1326.53 3078H1181.74L1174.9 3084.4C1171.06 3085.1 1165.86 3085.56 1160.2 3086.06C1143.12 3087.56 1121.93 3089.42 1121.93 3099.63L1095.89 3105.81L1039.92 3112.96C992.753 3113.63 954.249 3114.32 923.103 3114.88H923.103L923.1 3114.88C893.967 3115.41 871.273 3115.82 853.951 3115.98L850.44 3111.3L763.822 3110.83C758.121 3112.66 755.825 3116.65 752.77 3121.96C751.365 3124.4 749.799 3127.11 747.669 3130.03C743.221 3136.12 749.073 3139.39 749.073 3139.39L860.272 3199.32C1025.79 3199.32 1191.75 3199.68 1357.55 3200.03L1357.57 3200.03L1357.65 3200.03C1437.49 3200.2 1517.29 3200.37 1596.99 3200.49L1607.76 3195.11L1800.04 3196.52L1809.77 3191.13L1817.05 3196.05L1880.93 3188.79L1883.27 3175.21V3140.56L1878.83 3123.48L1817.52 3115.75L1807.22 3119.96L1798.83 3115.75L1786.85 3117.86H1731.84L1734.64 3092.34C1734.64 3092.34 1837.18 2985.89 1844.91 2978.8C1852.63 2971.7 1880.96 2958.43 1880.96 2958.43C1940.49 2955.94 1993.88 2954.53 2041.27 2953.28C2153.9 2950.31 2232.59 2948.23 2279.17 2934.55C2289 2933.73 2289 2927.3 2289 2927.3V2909.51C2289 2909.51 2289 2905.06 2279.17 2903.65C2269.34 2902.25 2178.5 2893.82 2178.5 2893.82C2178.5 2887.62 2172 2888.2 2169.37 2891.25L2126.53 2889.84L2123.96 2888.2C2103.28 2886.49 2083.41 2884.87 2064.44 2883.32C2031.65 2880.65 2001.5 2878.19 1974.37 2875.82L1971.09 2872.08H1932.72C1932.72 2872.08 1933.16 2847 1901.33 2847ZM1641.94 3068.46L1717.79 2983.72C1717.79 2983.72 1720.6 2979.5 1725.52 2979.5H1761.57C1769.06 2979.5 1766.72 2983.72 1766.72 2983.72L1695.32 3071.04C1695.32 3071.04 1692.74 3074.78 1688.06 3074.78H1643.35C1635.85 3074.78 1641.94 3068.46 1641.94 3068.46Z" fill="#763806"></path>
<path d="M1747.05 2847V2840H1740.05V2847H1747.05ZM1747.05 2852.38L1747.26 2859.38L1754.05 2859.18V2852.38H1747.05ZM1666.99 2854.73L1666.79 2847.73L1666.99 2854.73ZM1619.82 2858.02L1619.22 2851.05L1619.82 2858.02ZM1548.07 2863.62L1547.59 2856.64L1547.43 2856.65L1547.26 2856.67L1548.07 2863.62ZM1533.86 2866.94L1535.72 2873.69V2873.69L1533.86 2866.94ZM1506.63 2872.52L1506.15 2865.53L1506.63 2872.52ZM1474.67 2881.68L1477.27 2888.18V2888.18L1474.67 2881.68ZM1448.31 2890.07L1447.22 2883.16L1448.31 2890.07ZM1411.87 2894.95L1410.95 2888.01L1410.94 2888.01L1411.87 2894.95ZM1411.86 2894.95L1412.78 2901.89L1412.79 2901.89L1411.86 2894.95ZM1347.21 2903.65L1348.36 2910.56V2910.56L1347.21 2903.65ZM1340.18 2910.21H1347.18V2910.21L1340.18 2910.21ZM1340.18 2929.17L1347.18 2929.17V2929.17H1340.18ZM1430.08 2940.9L1435.59 2936.59L1433.7 2934.17L1430.64 2933.92L1430.08 2940.9ZM1438.74 2945.56L1438.13 2952.53L1438.74 2945.56ZM1460.19 2949.97L1458.46 2956.75V2956.75L1460.19 2949.97ZM1520.36 2956.14L1520.79 2949.15L1520.78 2949.15L1520.77 2949.15L1520.36 2956.14ZM1520.36 2956.14L1520.79 2949.15L1520.36 2956.14ZM1520.36 2956.14L1519.92 2963.12L1519.94 2963.12L1519.95 2963.12L1520.36 2956.14ZM1677.52 2964.29L1684.32 2962.59L1683.04 2957.48L1677.78 2957.29L1677.52 2964.29ZM1676.35 2973.65L1681.94 2977.87L1682.03 2977.75L1682.12 2977.62L1676.35 2973.65ZM1609.4 3063.31L1615.04 3067.46L1609.4 3063.31ZM1471.05 3107.79V3100.79H1468.98L1467.24 3101.91L1471.05 3107.79ZM1467.07 3110.37L1467.06 3117.37L1469.13 3117.37L1470.87 3116.24L1467.07 3110.37ZM1357.87 3110.44H1350.87V3117.45L1357.88 3117.44L1357.87 3110.44ZM1357.87 3105.59L1353.36 3100.23L1350.87 3102.33V3105.59H1357.87ZM1366.25 3098.52L1370.76 3103.88L1373.25 3101.78V3098.52H1366.25ZM1366.25 3091.46H1373.25V3085.6L1367.49 3084.57L1366.25 3091.46ZM1339.11 3086.6L1332.88 3089.8L1334.46 3092.88L1337.87 3093.49L1339.11 3086.6ZM1181.74 3078V3071H1178.98L1176.96 3072.88L1181.74 3078ZM1174.9 3084.4L1176.17 3091.28L1178.18 3090.91L1179.68 3089.51L1174.9 3084.4ZM1160.2 3086.06L1160.81 3093.03L1160.2 3086.06ZM1121.93 3099.63L1123.55 3106.44L1128.93 3105.16V3099.63H1121.93ZM1095.89 3105.81L1096.77 3112.75L1097.14 3112.7L1097.5 3112.62L1095.89 3105.81ZM1039.92 3112.96L1040.02 3119.96L1040.41 3119.95L1040.81 3119.9L1039.92 3112.96ZM923.103 3114.88V3121.88H923.166L923.229 3121.88L923.103 3114.88ZM923.103 3114.88V3107.88H922.98L922.857 3107.89L923.103 3114.88ZM923.1 3114.88L923.226 3121.88L923.286 3121.88L923.345 3121.88L923.1 3114.88ZM853.951 3115.98L848.351 3120.18L850.477 3123.02L854.019 3122.98L853.951 3115.98ZM850.44 3111.3L856.04 3107.1L853.954 3104.32L850.477 3104.3L850.44 3111.3ZM763.822 3110.83L763.859 3103.83L762.746 3103.83L761.686 3104.17L763.822 3110.83ZM752.77 3121.96L746.703 3118.46L746.703 3118.46L752.77 3121.96ZM747.669 3130.03L742.017 3125.9H742.017L747.669 3130.03ZM749.073 3139.39L745.653 3145.5L745.702 3145.53L745.752 3145.56L749.073 3139.39ZM860.272 3199.32L856.951 3205.49L858.506 3206.32H860.272V3199.32ZM1357.55 3200.03L1357.57 3193.03H1357.56L1357.55 3200.03ZM1357.57 3200.03L1357.55 3207.03H1357.56L1357.57 3200.03ZM1357.65 3200.03L1357.63 3207.03H1357.63L1357.65 3200.03ZM1596.99 3200.49L1596.98 3207.49L1598.64 3207.5L1600.12 3206.76L1596.99 3200.49ZM1607.76 3195.11L1607.81 3188.11L1606.13 3188.1L1604.63 3188.85L1607.76 3195.11ZM1800.04 3196.52L1799.99 3203.51L1801.82 3203.53L1803.43 3202.64L1800.04 3196.52ZM1809.77 3191.13L1813.69 3185.33L1810.14 3182.93L1806.38 3185.01L1809.77 3191.13ZM1817.05 3196.05L1813.13 3201.85L1815.27 3203.29L1817.84 3203L1817.05 3196.05ZM1880.93 3188.79L1881.72 3195.75L1886.94 3195.15L1887.83 3189.98L1880.93 3188.79ZM1883.27 3175.21L1890.17 3176.4L1890.27 3175.81V3175.21H1883.27ZM1883.27 3140.56H1890.27V3139.67L1890.05 3138.8L1883.27 3140.56ZM1878.83 3123.48L1885.6 3121.71L1884.41 3117.12L1879.7 3116.53L1878.83 3123.48ZM1817.52 3115.75L1818.39 3108.8L1816.57 3108.57L1814.87 3109.27L1817.52 3115.75ZM1807.22 3119.96L1804.07 3126.22L1806.92 3127.65L1809.87 3126.44L1807.22 3119.96ZM1798.83 3115.75L1801.98 3109.5L1799.9 3108.45L1797.62 3108.86L1798.83 3115.75ZM1786.85 3117.86V3124.86H1787.46L1788.06 3124.75L1786.85 3117.86ZM1731.84 3117.86L1724.88 3117.09L1724.02 3124.86H1731.84V3117.86ZM1734.64 3092.34L1729.6 3087.48L1727.95 3089.2L1727.69 3091.57L1734.64 3092.34ZM1880.96 2958.43L1880.67 2951.44L1879.26 2951.5L1877.99 2952.09L1880.96 2958.43ZM2041.27 2953.28L2041.08 2946.28L2041.27 2953.28ZM2279.17 2934.55L2278.58 2927.58L2277.88 2927.64L2277.2 2927.84L2279.17 2934.55ZM2178.5 2893.82L2171.5 2893.82L2171.5 2900.2L2177.86 2900.79L2178.5 2893.82ZM2169.37 2891.25L2169.14 2898.24L2172.49 2898.35L2174.67 2895.82L2169.37 2891.25ZM2126.53 2889.84L2122.78 2895.75L2124.39 2896.77L2126.3 2896.84L2126.53 2889.84ZM2123.96 2888.2L2127.72 2882.3L2126.26 2881.37L2124.54 2881.23L2123.96 2888.2ZM2064.44 2883.32L2063.87 2890.3L2064.44 2883.32ZM1974.37 2875.82L1969.1 2880.43L1970.95 2882.55L1973.76 2882.79L1974.37 2875.82ZM1971.09 2872.08L1976.36 2867.47L1974.27 2865.08H1971.09V2872.08ZM1932.72 2872.08L1925.72 2871.95L1925.6 2879.08H1932.72V2872.08ZM1717.79 2983.72L1723.01 2988.38L1723.34 2988.01L1723.61 2987.6L1717.79 2983.72ZM1641.94 3068.46L1646.98 3073.32L1647.07 3073.22L1647.16 3073.13L1641.94 3068.46ZM1766.72 2983.72L1772.14 2988.15L1772.53 2987.66L1772.84 2987.12L1766.72 2983.72ZM1695.32 3071.04L1689.9 3066.61L1689.71 3066.83L1689.55 3067.07L1695.32 3071.04ZM1747.05 2854H1901.33V2840H1747.05V2854ZM1754.05 2852.38V2847H1740.05V2852.38H1754.05ZM1667.19 2861.72C1694.12 2860.94 1714.13 2860.35 1727.42 2859.96C1734.06 2859.77 1739.02 2859.62 1742.32 2859.53C1743.97 2859.48 1745.2 2859.44 1746.03 2859.42C1746.44 2859.41 1746.75 2859.4 1746.95 2859.39C1747.05 2859.39 1747.13 2859.39 1747.18 2859.38C1747.21 2859.38 1747.23 2859.38 1747.24 2859.38C1747.25 2859.38 1747.25 2859.38 1747.25 2859.38C1747.26 2859.38 1747.26 2859.38 1747.26 2859.38C1747.26 2859.38 1747.26 2859.38 1747.26 2859.38C1747.26 2859.38 1747.26 2859.38 1747.05 2852.38C1746.85 2845.39 1746.85 2845.39 1746.85 2845.39C1746.85 2845.39 1746.85 2845.39 1746.85 2845.39C1746.84 2845.39 1746.84 2845.39 1746.84 2845.39C1746.84 2845.39 1746.83 2845.39 1746.83 2845.39C1746.81 2845.39 1746.8 2845.39 1746.77 2845.39C1746.72 2845.39 1746.64 2845.39 1746.54 2845.4C1746.33 2845.4 1746.03 2845.41 1745.61 2845.42C1744.79 2845.45 1743.56 2845.48 1741.91 2845.53C1738.61 2845.63 1733.65 2845.78 1727.01 2845.97C1713.72 2846.36 1693.71 2846.94 1666.79 2847.73L1667.19 2861.72ZM1620.41 2865C1640.45 2863.28 1654.38 2862.1 1667.19 2861.72L1666.79 2847.73C1653.5 2848.12 1639.13 2849.35 1619.22 2851.05L1620.41 2865ZM1548.54 2870.61C1579.58 2868.49 1602.39 2866.54 1620.41 2865L1619.22 2851.05C1601.21 2852.59 1578.5 2854.53 1547.59 2856.64L1548.54 2870.61ZM1535.72 2873.69C1541.48 2872.1 1545.77 2870.93 1548.87 2870.58L1547.26 2856.67C1542.83 2857.18 1537.32 2858.72 1531.99 2860.2L1535.72 2873.69ZM1507.11 2879.5C1517.36 2878.79 1527.65 2875.92 1535.72 2873.69L1531.99 2860.2C1523.68 2862.5 1514.76 2864.94 1506.15 2865.53L1507.11 2879.5ZM1477.27 2888.18C1487.96 2883.91 1497.48 2880.16 1507.11 2879.5L1506.15 2865.53C1493.94 2866.38 1482.34 2871.07 1472.08 2875.18L1477.27 2888.18ZM1449.4 2896.99C1459.15 2895.45 1468.63 2891.63 1477.27 2888.18L1472.08 2875.18C1463.13 2878.75 1455.14 2881.91 1447.22 2883.16L1449.4 2896.99ZM1412.79 2901.89C1431.4 2899.42 1447.48 2897.29 1449.4 2896.99L1447.22 2883.16C1445.52 2883.43 1429.76 2885.52 1410.95 2888.01L1412.79 2901.89ZM1412.79 2901.89L1412.79 2901.89L1410.94 2888.01L1410.94 2888.01L1412.79 2901.89ZM1348.36 2910.56C1352.37 2909.89 1385.38 2905.52 1412.78 2901.89L1410.94 2888.01C1383.8 2891.6 1350.37 2896.03 1346.05 2896.75L1348.36 2910.56ZM1340.18 2910.21C1347.18 2910.21 1347.18 2910.21 1347.18 2910.22C1347.18 2910.22 1347.18 2910.22 1347.18 2910.23C1347.18 2910.23 1347.18 2910.24 1347.18 2910.24C1347.18 2910.25 1347.18 2910.27 1347.18 2910.28C1347.18 2910.3 1347.18 2910.32 1347.18 2910.34C1347.18 2910.38 1347.18 2910.42 1347.18 2910.45C1347.17 2910.52 1347.17 2910.57 1347.17 2910.61C1347.16 2910.7 1347.15 2910.75 1347.14 2910.79C1347.13 2910.84 1347.12 2910.88 1347.09 2910.92C1346.89 2911.27 1346.82 2910.81 1348.36 2910.56L1346.05 2896.75C1340.57 2897.66 1336.99 2900.48 1335.03 2903.82C1334.12 2905.35 1333.67 2906.81 1333.44 2907.91C1333.33 2908.47 1333.26 2908.95 1333.23 2909.33C1333.21 2909.53 1333.2 2909.7 1333.19 2909.85C1333.19 2909.92 1333.19 2909.99 1333.18 2910.05C1333.18 2910.08 1333.18 2910.1 1333.18 2910.13C1333.18 2910.15 1333.18 2910.16 1333.18 2910.17C1333.18 2910.18 1333.18 2910.18 1333.18 2910.19C1333.18 2910.19 1333.18 2910.2 1333.18 2910.2C1333.18 2910.2 1333.18 2910.21 1340.18 2910.21ZM1347.18 2929.17V2910.21H1333.18V2929.17H1347.18ZM1348.58 2926.52C1345.85 2925.97 1345.57 2925.36 1346.01 2925.8C1346.25 2926.04 1346.58 2926.47 1346.83 2927.12C1346.94 2927.43 1347.03 2927.76 1347.09 2928.1C1347.12 2928.28 1347.15 2928.45 1347.16 2928.63C1347.17 2928.72 1347.17 2928.81 1347.18 2928.9C1347.18 2928.94 1347.18 2928.99 1347.18 2929.03C1347.18 2929.06 1347.18 2929.08 1347.18 2929.1C1347.18 2929.11 1347.18 2929.12 1347.18 2929.14C1347.18 2929.14 1347.18 2929.15 1347.18 2929.15C1347.18 2929.16 1347.18 2929.17 1340.18 2929.17C1333.18 2929.17 1333.18 2929.18 1333.18 2929.19C1333.18 2929.19 1333.18 2929.2 1333.18 2929.2C1333.18 2929.22 1333.18 2929.23 1333.18 2929.24C1333.18 2929.26 1333.18 2929.29 1333.18 2929.31C1333.18 2929.36 1333.19 2929.41 1333.19 2929.46C1333.19 2929.56 1333.2 2929.66 1333.21 2929.77C1333.23 2929.99 1333.25 2930.23 1333.3 2930.48C1333.39 2930.99 1333.53 2931.55 1333.76 2932.14C1334.23 2933.36 1334.99 2934.58 1336.11 2935.7C1338.31 2937.9 1341.54 2939.39 1345.83 2940.25L1348.58 2926.52ZM1430.08 2940.9C1430.64 2933.92 1430.64 2933.92 1430.64 2933.92C1430.64 2933.92 1430.64 2933.92 1430.64 2933.92C1430.63 2933.92 1430.63 2933.92 1430.63 2933.92C1430.62 2933.92 1430.6 2933.92 1430.59 2933.92C1430.55 2933.92 1430.5 2933.91 1430.42 2933.91C1430.28 2933.9 1430.07 2933.88 1429.79 2933.86C1429.23 2933.81 1428.42 2933.74 1427.37 2933.66C1425.29 2933.49 1422.3 2933.25 1418.69 2932.95C1411.48 2932.35 1401.78 2931.55 1391.87 2930.7C1381.96 2929.84 1371.85 2928.95 1363.78 2928.18C1355.46 2927.39 1349.88 2926.78 1348.58 2926.52L1345.83 2940.25C1348.04 2940.69 1354.58 2941.37 1362.45 2942.12C1370.58 2942.89 1380.75 2943.79 1390.68 2944.64C1400.61 2945.5 1410.32 2946.31 1417.54 2946.9C1421.15 2947.2 1424.15 2947.44 1426.24 2947.61C1427.28 2947.7 1428.1 2947.76 1428.66 2947.81C1428.94 2947.83 1429.15 2947.85 1429.3 2947.86C1429.37 2947.87 1429.42 2947.87 1429.46 2947.87C1429.48 2947.88 1429.49 2947.88 1429.5 2947.88C1429.51 2947.88 1429.51 2947.88 1429.51 2947.88C1429.51 2947.88 1429.51 2947.88 1429.51 2947.88C1429.52 2947.88 1429.52 2947.88 1430.08 2940.9ZM1439.35 2938.58C1438.34 2938.5 1437.38 2938.04 1436.56 2937.43C1436.16 2937.14 1435.86 2936.85 1435.68 2936.67C1435.59 2936.58 1435.53 2936.51 1435.52 2936.5C1435.51 2936.49 1435.51 2936.49 1435.52 2936.5C1435.53 2936.51 1435.54 2936.52 1435.55 2936.53C1435.55 2936.54 1435.56 2936.55 1435.57 2936.56C1435.57 2936.56 1435.57 2936.57 1435.58 2936.57C1435.58 2936.57 1435.58 2936.58 1435.58 2936.58C1435.59 2936.58 1435.59 2936.58 1435.59 2936.58C1435.59 2936.59 1435.59 2936.59 1430.08 2940.9C1424.57 2945.22 1424.57 2945.22 1424.57 2945.22C1424.57 2945.22 1424.57 2945.22 1424.57 2945.22C1424.57 2945.23 1424.58 2945.23 1424.58 2945.23C1424.58 2945.24 1424.59 2945.25 1424.59 2945.25C1424.6 2945.26 1424.61 2945.28 1424.63 2945.29C1424.65 2945.32 1424.68 2945.36 1424.71 2945.4C1424.77 2945.47 1424.85 2945.56 1424.94 2945.67C1425.13 2945.88 1425.37 2946.15 1425.67 2946.46C1426.27 2947.07 1427.13 2947.87 1428.22 2948.68C1430.38 2950.28 1433.76 2952.15 1438.13 2952.53L1439.35 2938.58ZM1461.93 2943.19C1454.69 2941.34 1446.37 2939.19 1439.35 2938.58L1438.13 2952.53C1443.78 2953.02 1450.86 2954.81 1458.46 2956.75L1461.93 2943.19ZM1481.19 2946.98C1477.01 2946.98 1470.35 2945.34 1461.93 2943.19L1458.46 2956.75C1466.08 2958.7 1474.81 2960.98 1481.19 2960.98V2946.98ZM1520.77 2949.15C1499.47 2947.89 1484.2 2946.98 1481.19 2946.98V2960.98C1483.65 2960.98 1498.2 2961.84 1519.94 2963.12L1520.77 2949.15ZM1520.79 2949.15L1520.79 2949.15L1519.92 2963.12L1519.92 2963.12L1520.79 2949.15ZM1520.8 2949.15L1520.79 2949.15L1519.92 2963.12L1519.92 2963.12L1520.8 2949.15ZM1677.78 2957.29C1627.42 2955.45 1562.03 2951.59 1520.77 2949.15L1519.95 2963.12C1561.16 2965.56 1626.72 2969.43 1677.27 2971.28L1677.78 2957.29ZM1682.12 2977.62C1684.61 2973.99 1684.94 2969.92 1684.9 2967.45C1684.88 2966.12 1684.75 2964.97 1684.62 2964.14C1684.55 2963.72 1684.49 2963.37 1684.43 2963.11C1684.41 2962.98 1684.38 2962.87 1684.36 2962.78C1684.35 2962.74 1684.34 2962.7 1684.34 2962.67C1684.33 2962.65 1684.33 2962.64 1684.32 2962.62C1684.32 2962.62 1684.32 2962.61 1684.32 2962.6C1684.32 2962.6 1684.32 2962.6 1684.32 2962.6C1684.32 2962.59 1684.32 2962.59 1684.32 2962.59C1684.32 2962.59 1684.32 2962.59 1677.52 2964.29C1670.73 2965.98 1670.73 2965.98 1670.73 2965.98C1670.73 2965.98 1670.73 2965.98 1670.73 2965.98C1670.73 2965.97 1670.73 2965.97 1670.73 2965.97C1670.73 2965.96 1670.73 2965.96 1670.73 2965.96C1670.72 2965.95 1670.72 2965.94 1670.72 2965.94C1670.72 2965.92 1670.72 2965.92 1670.72 2965.92C1670.72 2965.91 1670.72 2965.93 1670.73 2965.96C1670.74 2966.02 1670.76 2966.14 1670.79 2966.3C1670.84 2966.65 1670.9 2967.13 1670.91 2967.67C1670.93 2968.95 1670.67 2969.56 1670.59 2969.68L1682.12 2977.62ZM1615.04 3067.46C1631.41 3045.25 1648.13 3022.85 1660.77 3006C1667.08 2997.58 1672.38 2990.54 1676.09 2985.62C1677.95 2983.15 1679.41 2981.22 1680.41 2979.9C1680.91 2979.24 1681.29 2978.73 1681.55 2978.39C1681.68 2978.22 1681.77 2978.09 1681.84 2978C1681.87 2977.96 1681.9 2977.93 1681.91 2977.9C1681.92 2977.89 1681.93 2977.89 1681.93 2977.88C1681.93 2977.88 1681.93 2977.88 1681.94 2977.87C1681.94 2977.87 1681.94 2977.87 1681.94 2977.87C1681.94 2977.87 1681.94 2977.87 1676.35 2973.65C1670.77 2969.43 1670.77 2969.43 1670.77 2969.43C1670.77 2969.43 1670.77 2969.43 1670.77 2969.43C1670.77 2969.43 1670.77 2969.43 1670.76 2969.43C1670.76 2969.44 1670.75 2969.45 1670.75 2969.46C1670.73 2969.48 1670.7 2969.51 1670.67 2969.56C1670.61 2969.65 1670.51 2969.78 1670.38 2969.95C1670.12 2970.29 1669.74 2970.8 1669.24 2971.46C1668.24 2972.78 1666.77 2974.72 1664.91 2977.19C1661.19 2982.13 1655.89 2989.17 1649.57 2997.6C1636.92 3014.46 1620.17 3036.9 1603.77 3059.16L1615.04 3067.46ZM1471.05 3114.79C1507.56 3114.79 1535.01 3114.84 1557.36 3109C1580.41 3102.98 1597.85 3090.79 1615.04 3067.46L1603.77 3059.16C1588.18 3080.32 1573.31 3090.36 1553.82 3095.46C1533.61 3100.74 1508.27 3100.79 1471.05 3100.79V3114.79ZM1470.87 3116.24L1474.85 3113.67L1467.24 3101.91L1463.26 3104.49L1470.87 3116.24ZM1357.88 3117.44C1392.24 3117.36 1428.6 3117.33 1467.06 3117.37L1467.07 3103.37C1428.59 3103.33 1392.22 3103.36 1357.85 3103.44L1357.88 3117.44ZM1364.87 3110.44V3105.59H1350.87V3110.44H1364.87ZM1362.38 3110.94L1370.76 3103.88L1361.74 3093.17L1353.36 3100.23L1362.38 3110.94ZM1373.25 3098.52V3091.46H1359.25V3098.52H1373.25ZM1367.49 3084.57L1340.34 3079.71L1337.87 3093.49L1365.02 3098.35L1367.49 3084.57ZM1339.11 3086.6C1345.34 3083.41 1345.33 3083.41 1345.33 3083.41C1345.33 3083.4 1345.33 3083.4 1345.33 3083.4C1345.33 3083.4 1345.33 3083.39 1345.33 3083.39C1345.32 3083.38 1345.32 3083.38 1345.31 3083.37C1345.3 3083.35 1345.29 3083.33 1345.28 3083.31C1345.26 3083.27 1345.23 3083.22 1345.2 3083.16C1345.14 3083.04 1345.06 3082.9 1344.95 3082.72C1344.75 3082.37 1344.47 3081.9 1344.1 3081.36C1343.38 3080.29 1342.3 3078.84 1340.86 3077.38C1338.05 3074.54 1333.22 3071 1326.53 3071V3085C1328 3085 1329.46 3085.76 1330.9 3087.22C1331.58 3087.91 1332.11 3088.62 1332.48 3089.16C1332.65 3089.42 1332.78 3089.63 1332.85 3089.75C1332.88 3089.81 1332.9 3089.84 1332.91 3089.85C1332.91 3089.86 1332.91 3089.86 1332.9 3089.85C1332.9 3089.84 1332.9 3089.84 1332.89 3089.83C1332.89 3089.82 1332.89 3089.82 1332.89 3089.82C1332.89 3089.81 1332.88 3089.81 1332.88 3089.81C1332.88 3089.81 1332.88 3089.8 1332.88 3089.8C1332.88 3089.8 1332.88 3089.8 1339.11 3086.6ZM1326.53 3071H1181.74V3085H1326.53V3071ZM1176.96 3072.88L1170.12 3079.29L1179.68 3089.51L1186.52 3083.11L1176.96 3072.88ZM1173.63 3077.51C1170.19 3078.15 1165.37 3078.58 1159.59 3079.08L1160.81 3093.03C1166.34 3092.55 1171.93 3092.06 1176.17 3091.28L1173.63 3077.51ZM1159.59 3079.08C1151.22 3079.82 1141.02 3080.7 1132.9 3082.8C1128.87 3083.85 1124.7 3085.35 1121.4 3087.74C1117.91 3090.27 1114.93 3094.2 1114.93 3099.63H1128.93C1128.93 3099.6 1128.93 3099.63 1128.92 3099.68C1128.9 3099.73 1128.89 3099.76 1128.89 3099.75C1128.9 3099.73 1129.06 3099.48 1129.62 3099.08C1130.82 3098.2 1133.02 3097.23 1136.42 3096.35C1143.17 3094.6 1152.09 3093.8 1160.81 3093.03L1159.59 3079.08ZM1120.31 3092.82L1094.27 3098.99L1097.5 3112.62L1123.55 3106.44L1120.31 3092.82ZM1095 3098.86L1039.03 3106.02L1040.81 3119.9L1096.77 3112.75L1095 3098.86ZM923.229 3121.88C954.374 3121.32 992.867 3120.63 1040.02 3119.96L1039.82 3105.96C992.639 3106.63 954.124 3107.33 922.978 3107.89L923.229 3121.88ZM923.103 3121.88H923.103V3107.88H923.103V3121.88ZM923.345 3121.88L923.348 3121.88L922.857 3107.89L922.854 3107.89L923.345 3121.88ZM854.019 3122.98C871.377 3122.81 894.105 3122.41 923.226 3121.88L922.974 3107.89C893.829 3108.41 871.169 3108.82 853.883 3108.98L854.019 3122.98ZM844.84 3115.5L848.351 3120.18L859.551 3111.78L856.04 3107.1L844.84 3115.5ZM763.784 3117.83L850.402 3118.3L850.477 3104.3L763.859 3103.83L763.784 3117.83ZM758.836 3125.45C762.038 3119.89 763.163 3118.4 765.958 3117.5L761.686 3104.17C753.079 3106.93 749.612 3113.41 746.703 3118.46L758.836 3125.45ZM753.32 3134.16C755.702 3130.9 757.438 3127.88 758.836 3125.45L746.703 3118.46C745.292 3120.91 743.896 3123.33 742.017 3125.9L753.32 3134.16ZM749.073 3139.39C752.493 3133.29 752.497 3133.29 752.5 3133.29C752.501 3133.29 752.504 3133.29 752.506 3133.29C752.511 3133.3 752.515 3133.3 752.519 3133.3C752.527 3133.31 752.535 3133.31 752.543 3133.31C752.559 3133.32 752.573 3133.33 752.586 3133.34C752.613 3133.36 752.635 3133.37 752.654 3133.38C752.692 3133.4 752.716 3133.42 752.729 3133.43C752.754 3133.44 752.748 3133.44 752.73 3133.43C752.661 3133.37 752.697 3133.38 752.774 3133.51C752.886 3133.71 753.025 3134.08 752.996 3134.52C752.969 3134.94 752.824 3134.84 753.32 3134.16L742.017 3125.9C740.289 3128.26 739.208 3130.85 739.027 3133.6C738.844 3136.36 739.613 3138.7 740.632 3140.48C741.616 3142.19 742.837 3143.4 743.727 3144.15C744.187 3144.53 744.604 3144.84 744.931 3145.06C745.096 3145.17 745.242 3145.26 745.363 3145.33C745.423 3145.37 745.478 3145.4 745.527 3145.43C745.551 3145.44 745.574 3145.46 745.595 3145.47C745.605 3145.47 745.615 3145.48 745.625 3145.49C745.63 3145.49 745.635 3145.49 745.639 3145.49C745.642 3145.5 745.645 3145.5 745.646 3145.5C745.65 3145.5 745.653 3145.5 749.073 3139.39ZM863.593 3193.16L752.394 3133.23L745.752 3145.56L856.951 3205.49L863.593 3193.16ZM1357.56 3193.03C1191.76 3192.68 1025.8 3192.32 860.272 3192.32V3206.32C1025.79 3206.32 1191.73 3206.68 1357.53 3207.03L1357.56 3193.03ZM1357.6 3193.03L1357.57 3193.03L1357.52 3207.03L1357.55 3207.03L1357.6 3193.03ZM1357.67 3193.03L1357.59 3193.03L1357.56 3207.03L1357.63 3207.03L1357.67 3193.03ZM1597 3193.49C1517.3 3193.37 1437.5 3193.2 1357.66 3193.03L1357.63 3207.03C1437.47 3207.2 1517.28 3207.37 1596.98 3207.49L1597 3193.49ZM1604.63 3188.85L1593.86 3194.23L1600.12 3206.76L1610.89 3201.37L1604.63 3188.85ZM1800.09 3189.52L1607.81 3188.11L1607.71 3202.11L1799.99 3203.51L1800.09 3189.52ZM1806.38 3185.01L1796.65 3190.39L1803.43 3202.64L1813.16 3197.26L1806.38 3185.01ZM1820.97 3190.25L1813.69 3185.33L1805.85 3196.93L1813.13 3201.85L1820.97 3190.25ZM1880.14 3181.83L1816.26 3189.09L1817.84 3203L1881.72 3195.75L1880.14 3181.83ZM1876.38 3174.02L1874.03 3187.6L1887.83 3189.98L1890.17 3176.4L1876.38 3174.02ZM1876.27 3140.56V3175.21H1890.27V3140.56H1876.27ZM1872.05 3125.24L1876.5 3142.33L1890.05 3138.8L1885.6 3121.71L1872.05 3125.24ZM1816.64 3122.69L1877.95 3130.42L1879.7 3116.53L1818.39 3108.8L1816.64 3122.69ZM1809.87 3126.44L1820.17 3122.23L1814.87 3109.27L1804.57 3113.48L1809.87 3126.44ZM1795.69 3122L1804.07 3126.22L1810.36 3113.71L1801.98 3109.5L1795.69 3122ZM1788.06 3124.75L1800.04 3122.64L1797.62 3108.86L1785.64 3110.96L1788.06 3124.75ZM1731.84 3124.86H1786.85V3110.86H1731.84V3124.86ZM1727.69 3091.57L1724.88 3117.09L1738.79 3118.62L1741.6 3093.11L1727.69 3091.57ZM1840.17 2973.64C1836.11 2977.38 1808.3 3006.01 1781.85 3033.36C1768.54 3047.12 1755.48 3060.65 1745.75 3070.74C1740.88 3075.78 1736.85 3079.97 1734.03 3082.89C1732.62 3084.36 1731.51 3085.5 1730.76 3086.29C1730.38 3086.68 1730.09 3086.98 1729.9 3087.18C1729.8 3087.28 1729.73 3087.35 1729.68 3087.41C1729.65 3087.43 1729.63 3087.45 1729.62 3087.46C1729.62 3087.47 1729.61 3087.48 1729.61 3087.48C1729.61 3087.48 1729.61 3087.48 1729.6 3087.48C1729.6 3087.48 1729.6 3087.48 1734.64 3092.34C1739.69 3097.2 1739.69 3097.2 1739.69 3097.19C1739.69 3097.19 1739.69 3097.19 1739.69 3097.19C1739.69 3097.19 1739.7 3097.18 1739.7 3097.18C1739.72 3097.16 1739.74 3097.14 1739.76 3097.12C1739.81 3097.07 1739.88 3096.99 1739.98 3096.89C1740.17 3096.69 1740.46 3096.39 1740.84 3096C1741.59 3095.22 1742.7 3094.07 1744.11 3092.61C1746.92 3089.69 1750.96 3085.5 1755.82 3080.46C1765.56 3070.37 1778.61 3056.84 1791.91 3043.1C1818.65 3015.45 1845.98 2987.32 1849.64 2983.96L1840.17 2973.64ZM1880.96 2958.43C1877.99 2952.09 1877.99 2952.09 1877.99 2952.09C1877.99 2952.09 1877.99 2952.1 1877.99 2952.1C1877.99 2952.1 1877.98 2952.1 1877.98 2952.1C1877.98 2952.1 1877.97 2952.1 1877.96 2952.11C1877.95 2952.11 1877.93 2952.12 1877.9 2952.14C1877.84 2952.16 1877.76 2952.2 1877.65 2952.25C1877.43 2952.36 1877.12 2952.51 1876.71 2952.7C1875.91 2953.08 1874.75 2953.64 1873.34 2954.33C1870.53 2955.7 1866.68 2957.61 1862.59 2959.75C1858.5 2961.89 1854.11 2964.28 1850.2 2966.62C1846.42 2968.88 1842.67 2971.35 1840.17 2973.64L1849.64 2983.96C1851.01 2982.7 1853.69 2980.85 1857.4 2978.63C1860.98 2976.48 1865.11 2974.23 1869.07 2972.16C1873.02 2970.1 1876.75 2968.24 1879.48 2966.91C1880.85 2966.24 1881.97 2965.7 1882.74 2965.33C1883.13 2965.15 1883.43 2965.01 1883.63 2964.91C1883.73 2964.86 1883.81 2964.83 1883.86 2964.81C1883.88 2964.79 1883.9 2964.78 1883.91 2964.78C1883.92 2964.78 1883.92 2964.77 1883.93 2964.77C1883.93 2964.77 1883.93 2964.77 1883.93 2964.77C1883.93 2964.77 1883.93 2964.77 1883.93 2964.77C1883.93 2964.77 1883.93 2964.77 1880.96 2958.43ZM2041.08 2946.28C1993.7 2947.53 1940.26 2948.94 1880.67 2951.44L1881.25 2965.43C1940.72 2962.93 1994.06 2961.53 2041.45 2960.28L2041.08 2946.28ZM2277.2 2927.84C2254.69 2934.45 2224.02 2938.35 2184.53 2940.95C2145.12 2943.53 2097.45 2944.79 2041.08 2946.28L2041.45 2960.28C2097.72 2958.79 2145.71 2957.53 2185.45 2954.92C2225.11 2952.31 2257.07 2948.34 2281.14 2941.27L2277.2 2927.84ZM2289 2927.3C2282 2927.3 2282 2927.29 2282 2927.29C2282 2927.29 2282 2927.28 2282 2927.28C2282 2927.27 2282 2927.26 2282 2927.26C2282 2927.24 2282 2927.23 2282 2927.22C2282 2927.19 2282 2927.17 2282 2927.14C2282 2927.1 2282 2927.05 2282.01 2927.01C2282.01 2926.94 2282.02 2926.87 2282.02 2926.82C2282.03 2926.72 2282.05 2926.66 2282.05 2926.62C2282.07 2926.55 2282.09 2926.53 2282.09 2926.53C2282.08 2926.54 2282.06 2926.56 2282.01 2926.61C2281.95 2926.66 2281.84 2926.75 2281.62 2926.86C2281.2 2927.08 2280.29 2927.44 2278.58 2927.58L2279.75 2941.53C2286.32 2940.98 2290.82 2938.37 2293.46 2934.7C2294.68 2932.99 2295.31 2931.31 2295.64 2930.01C2295.8 2929.36 2295.89 2928.78 2295.94 2928.33C2295.96 2928.1 2295.98 2927.9 2295.99 2927.72C2295.99 2927.64 2296 2927.56 2296 2927.49C2296 2927.45 2296 2927.42 2296 2927.39C2296 2927.37 2296 2927.36 2296 2927.34C2296 2927.33 2296 2927.33 2296 2927.32C2296 2927.31 2296 2927.31 2296 2927.31C2296 2927.3 2296 2927.3 2289 2927.3ZM2282 2909.51V2927.3H2296V2909.51H2282ZM2278.18 2910.58C2282.14 2911.15 2282.92 2912.16 2282.71 2911.94C2282.6 2911.83 2282.4 2911.56 2282.24 2911.1C2282.16 2910.88 2282.1 2910.64 2282.06 2910.38C2282.04 2910.25 2282.03 2910.11 2282.02 2909.96C2282.01 2909.89 2282.01 2909.82 2282 2909.74C2282 2909.7 2282 2909.66 2282 2909.62C2282 2909.61 2282 2909.59 2282 2909.57C2282 2909.56 2282 2909.55 2282 2909.54C2282 2909.53 2282 2909.52 2282 2909.52C2282 2909.51 2282 2909.51 2289 2909.51C2296 2909.51 2296 2909.5 2296 2909.49C2296 2909.49 2296 2909.48 2296 2909.47C2296 2909.46 2296 2909.45 2296 2909.44C2296 2909.42 2296 2909.4 2296 2909.38C2296 2909.34 2296 2909.29 2296 2909.24C2295.99 2909.15 2295.99 2909.05 2295.98 2908.95C2295.96 2908.74 2295.94 2908.5 2295.9 2908.24C2295.82 2907.73 2295.68 2907.13 2295.45 2906.48C2294.99 2905.14 2294.17 2903.67 2292.83 2902.27C2290.16 2899.48 2286.02 2897.56 2280.16 2896.72L2278.18 2910.58ZM2178.5 2893.82C2177.86 2900.79 2177.86 2900.79 2177.86 2900.79C2177.86 2900.79 2177.86 2900.79 2177.86 2900.79C2177.86 2900.79 2177.87 2900.79 2177.87 2900.79C2177.88 2900.79 2177.9 2900.79 2177.92 2900.8C2177.97 2900.8 2178.03 2900.81 2178.12 2900.81C2178.29 2900.83 2178.54 2900.85 2178.88 2900.89C2179.55 2900.95 2180.53 2901.04 2181.78 2901.16C2184.28 2901.39 2187.86 2901.72 2192.2 2902.13C2200.86 2902.94 2212.52 2904.04 2224.48 2905.18C2248.56 2907.47 2273.47 2909.91 2278.18 2910.58L2280.16 2896.72C2275.03 2895.99 2249.61 2893.51 2225.81 2891.24C2213.84 2890.1 2202.17 2889 2193.5 2888.19C2189.17 2887.78 2185.58 2887.45 2183.08 2887.22C2181.82 2887.1 2180.84 2887.01 2180.17 2886.95C2179.84 2886.91 2179.58 2886.89 2179.41 2886.87C2179.33 2886.87 2179.26 2886.86 2179.22 2886.86C2179.19 2886.85 2179.18 2886.85 2179.17 2886.85C2179.16 2886.85 2179.16 2886.85 2179.15 2886.85C2179.15 2886.85 2179.15 2886.85 2179.15 2886.85C2179.15 2886.85 2179.15 2886.85 2178.5 2893.82ZM2174.67 2895.82C2174.5 2896.02 2174.41 2896.03 2174.47 2896.01C2174.54 2895.98 2174.41 2896.06 2174.04 2896.01C2173.6 2895.96 2172.78 2895.69 2172.1 2894.9C2171.44 2894.11 2171.5 2893.5 2171.5 2893.82L2185.5 2893.82C2185.5 2891.05 2184.76 2888.18 2182.79 2885.86C2180.82 2883.52 2178.2 2882.43 2175.81 2882.12C2171.43 2881.57 2166.86 2883.45 2164.07 2886.67L2174.67 2895.82ZM2126.3 2896.84L2169.14 2898.24L2169.6 2884.25L2126.76 2882.84L2126.3 2896.84ZM2120.2 2894.11L2122.78 2895.75L2130.29 2883.94L2127.72 2882.3L2120.2 2894.11ZM2063.87 2890.3C2082.85 2891.84 2102.7 2893.46 2123.38 2895.18L2124.54 2881.23C2103.85 2879.51 2083.98 2877.89 2065.01 2876.34L2063.87 2890.3ZM1973.76 2882.79C2000.92 2885.17 2031.08 2887.63 2063.87 2890.3L2065.01 2876.34C2032.21 2873.67 2002.09 2871.22 1974.98 2868.85L1973.76 2882.79ZM1965.82 2876.69L1969.1 2880.43L1979.63 2871.21L1976.36 2867.47L1965.82 2876.69ZM1932.72 2879.08H1971.09V2865.08H1932.72V2879.08ZM1901.33 2854C1915.05 2854 1920.53 2859.2 1923.01 2863.21C1924.39 2865.45 1925.08 2867.73 1925.42 2869.49C1925.59 2870.36 1925.67 2871.06 1925.7 2871.51C1925.71 2871.73 1925.72 2871.89 1925.72 2871.97C1925.72 2872.01 1925.72 2872.03 1925.72 2872.02C1925.72 2872.02 1925.72 2872.02 1925.72 2872C1925.72 2872 1925.72 2871.99 1925.72 2871.98C1925.72 2871.98 1925.72 2871.97 1925.72 2871.97C1925.72 2871.97 1925.72 2871.96 1925.72 2871.96C1925.72 2871.96 1925.72 2871.95 1932.72 2872.08C1939.72 2872.2 1939.72 2872.19 1939.72 2872.19C1939.72 2872.19 1939.72 2872.18 1939.72 2872.18C1939.72 2872.17 1939.72 2872.17 1939.72 2872.16C1939.72 2872.14 1939.72 2872.13 1939.72 2872.11C1939.72 2872.07 1939.72 2872.03 1939.72 2871.98C1939.72 2871.89 1939.72 2871.77 1939.72 2871.62C1939.71 2871.33 1939.69 2870.95 1939.66 2870.49C1939.59 2869.57 1939.45 2868.31 1939.17 2866.82C1938.59 2863.88 1937.41 2859.9 1934.92 2855.86C1929.66 2847.33 1919.44 2840 1901.33 2840V2854ZM1712.57 2979.05L1636.72 3063.79L1647.16 3073.13L1723.01 2988.38L1712.57 2979.05ZM1725.52 2972.5C1720.97 2972.5 1717.54 2974.46 1715.44 2976.14C1714.37 2976.99 1713.56 2977.84 1713 2978.49C1712.72 2978.82 1712.49 2979.11 1712.32 2979.33C1712.23 2979.45 1712.16 2979.55 1712.1 2979.63C1712.07 2979.67 1712.05 2979.71 1712.02 2979.75C1712.01 2979.76 1712 2979.78 1711.99 2979.79C1711.99 2979.8 1711.98 2979.81 1711.98 2979.81C1711.98 2979.82 1711.97 2979.82 1711.97 2979.82C1711.97 2979.83 1711.97 2979.83 1711.97 2979.83C1711.97 2979.83 1711.97 2979.83 1717.79 2983.72C1723.61 2987.6 1723.61 2987.6 1723.61 2987.6C1723.61 2987.6 1723.61 2987.61 1723.61 2987.61C1723.61 2987.61 1723.6 2987.61 1723.6 2987.62C1723.6 2987.62 1723.59 2987.63 1723.59 2987.63C1723.58 2987.64 1723.58 2987.65 1723.57 2987.66C1723.56 2987.68 1723.55 2987.69 1723.54 2987.7C1723.53 2987.73 1723.52 2987.74 1723.52 2987.73C1723.52 2987.73 1723.55 2987.69 1723.61 2987.63C1723.73 2987.48 1723.93 2987.28 1724.18 2987.08C1724.71 2986.65 1725.15 2986.5 1725.52 2986.5V2972.5ZM1761.57 2972.5H1725.52V2986.5H1761.57V2972.5ZM1766.72 2983.72C1772.84 2987.12 1772.84 2987.11 1772.84 2987.11C1772.84 2987.11 1772.84 2987.1 1772.85 2987.1C1772.85 2987.09 1772.85 2987.09 1772.85 2987.08C1772.86 2987.07 1772.87 2987.06 1772.87 2987.05C1772.89 2987.02 1772.9 2986.99 1772.92 2986.97C1772.95 2986.91 1772.98 2986.85 1773.01 2986.78C1773.08 2986.64 1773.16 2986.48 1773.24 2986.29C1773.4 2985.92 1773.58 2985.42 1773.74 2984.81C1774.03 2983.69 1774.35 2981.67 1773.59 2979.4C1771.71 2973.76 1765.98 2972.5 1761.57 2972.5V2986.5C1762.89 2986.5 1763 2986.71 1762.54 2986.49C1761.85 2986.16 1760.81 2985.31 1760.31 2983.82C1759.9 2982.6 1760.1 2981.63 1760.19 2981.3C1760.24 2981.09 1760.31 2980.92 1760.37 2980.78C1760.4 2980.7 1760.43 2980.63 1760.47 2980.56C1760.49 2980.52 1760.51 2980.48 1760.53 2980.44C1760.54 2980.42 1760.55 2980.4 1760.56 2980.38C1760.57 2980.37 1760.57 2980.36 1760.58 2980.35C1760.58 2980.34 1760.59 2980.34 1760.59 2980.33C1760.59 2980.33 1760.59 2980.33 1760.59 2980.32C1760.6 2980.32 1760.6 2980.32 1766.72 2983.72ZM1700.73 3075.47L1772.14 2988.15L1761.3 2979.28L1689.9 3066.61L1700.73 3075.47ZM1688.06 3081.78C1692.36 3081.78 1695.63 3080.05 1697.69 3078.48C1698.72 3077.69 1699.51 3076.9 1700.05 3076.29C1700.33 3075.98 1700.55 3075.71 1700.72 3075.49C1700.81 3075.38 1700.88 3075.28 1700.94 3075.2C1700.97 3075.16 1701 3075.12 1701.02 3075.09C1701.03 3075.07 1701.05 3075.06 1701.06 3075.04C1701.06 3075.04 1701.07 3075.03 1701.07 3075.02C1701.07 3075.02 1701.08 3075.01 1701.08 3075.01C1701.08 3075.01 1701.08 3075.01 1701.08 3075.01C1701.08 3075 1701.08 3075 1695.32 3071.04C1689.55 3067.07 1689.55 3067.07 1689.55 3067.07C1689.55 3067.07 1689.55 3067.06 1689.55 3067.06C1689.56 3067.06 1689.56 3067.05 1689.56 3067.05C1689.56 3067.05 1689.57 3067.04 1689.57 3067.03C1689.58 3067.02 1689.59 3067.01 1689.59 3067C1689.61 3066.98 1689.62 3066.97 1689.63 3066.95C1689.65 3066.93 1689.66 3066.91 1689.67 3066.9C1689.68 3066.89 1689.66 3066.91 1689.63 3066.95C1689.54 3067.04 1689.4 3067.19 1689.2 3067.34C1688.8 3067.65 1688.44 3067.78 1688.06 3067.78V3081.78ZM1643.35 3081.78H1688.06V3067.78H1643.35V3081.78ZM1641.94 3068.46C1636.9 3063.61 1636.9 3063.61 1636.9 3063.61C1636.89 3063.61 1636.89 3063.61 1636.89 3063.61C1636.89 3063.61 1636.89 3063.62 1636.89 3063.62C1636.88 3063.62 1636.88 3063.63 1636.87 3063.63C1636.86 3063.65 1636.85 3063.66 1636.83 3063.67C1636.8 3063.7 1636.77 3063.74 1636.73 3063.78C1636.65 3063.87 1636.55 3063.98 1636.43 3064.11C1636.2 3064.38 1635.89 3064.75 1635.55 3065.19C1634.94 3065.98 1633.92 3067.43 1633.27 3069.19C1632.7 3070.73 1631.66 3074.68 1634.54 3078.22C1637.12 3081.39 1641.01 3081.78 1643.35 3081.78V3067.78C1642.85 3067.78 1642.88 3067.72 1643.23 3067.83C1643.61 3067.95 1644.55 3068.34 1645.39 3069.37C1645.81 3069.88 1646.12 3070.46 1646.33 3071.06C1646.53 3071.64 1646.6 3072.18 1646.61 3072.61C1646.63 3073.42 1646.44 3073.94 1646.4 3074.05C1646.34 3074.2 1646.32 3074.21 1646.39 3074.1C1646.46 3073.99 1646.55 3073.85 1646.66 3073.7C1646.78 3073.56 1646.88 3073.43 1646.95 3073.35C1646.99 3073.31 1647.01 3073.29 1647.02 3073.28C1647.02 3073.28 1647.02 3073.28 1647.01 3073.28C1647.01 3073.29 1647.01 3073.29 1647 3073.3C1647 3073.3 1647 3073.3 1646.99 3073.31C1646.99 3073.31 1646.99 3073.31 1646.99 3073.31C1646.99 3073.31 1646.99 3073.31 1646.99 3073.31C1646.98 3073.32 1646.98 3073.32 1641.94 3068.46Z" fill="#FFEC92"></path>
</g>
<path id="Rectangle 349" d="M915.72 3166L874.498 3145H1618.13L1598.69 3166H915.72Z" stroke="#FFEC92" stroke-width="6"></path>
<line id="Line 80" x1="1457" y1="2949" x2="2117" y2="2949" stroke="#FFEC92" stroke-width="2"></line>
<line id="Line 79" x1="1342" y1="2911" x2="2289" y2="2911" stroke="#FFEC92" stroke-width="6"></line>
<line id="Line 82_2" x1="1342" y1="2927" x2="2289" y2="2927" stroke="#FFEC92" stroke-width="6"></line>
<line id="Line 81" x1="1438" y1="2891" x2="2132" y2="2891" stroke="#FFEC92" stroke-width="2"></line>
<line id="Line 83_2" x1="1504" y1="2874" x2="1968" y2="2874" stroke="#FFEC92" stroke-width="2"></line>
</g>
<text id="brand2" opacity="0.2" fill="#FFE359" xml:space="preserve" style="white-space:pre" font-family="Oswald" font-size="42" letter-spacing="0.043em"><tspan x="1923.93" y="3863.98">MAXIUMUM WARP&#x2022;MEWHO</tspan></text>
<text id="brand1" opacity="0.2" fill="#FFE359" xml:space="preserve" style="white-space:pre" font-family="Oswald" font-size="54" font-weight="500" letter-spacing="0.05em"><tspan x="1921.92" y="3805.41">MEWHO.COM/RITOS</tspan></text>
<g id="elmBtn3">
<g id="Group 45">
<path id="Union" d="M735 3429V3505H707.7V3504.88C688.276 3503.31 673 3486.95 673 3467C673 3447.05 688.276 3430.69 707.7 3429.12V3429H735Z" fill="#FFF5EB"></path>
<rect id="Rectangle 280" x="750" y="3429" width="241" height="76" fill="#FFF5EB"></rect>
<rect id="Rectangle 279" x="1968" y="3429" width="248" height="76" fill="#FFF5EB"></rect>
<path id="Union_2" d="M2231 3429V3505H2258.3V3504.88C2277.72 3503.31 2293 3486.95 2293 3467C2293 3447.05 2277.72 3430.69 2258.3 3429.12V3429H2231Z" fill="#FFF5EB"></path>
<text id="date" fill="#DA9A4D" xml:space="preserve" style="white-space:pre" font-family="Oswald" font-size="92" letter-spacing="-0.01em"><tspan x="1041.51" y="3503.58">RITOS REMOTE &#x2022; NETWORK</tspan></text>
</g>
</g>
<g id="btnColorScheme">
<path id="hitarea" fill-rule="evenodd" clip-rule="evenodd" d="M2146 2276H643V2570H2146C2227.19 2570 2293 2504.19 2293 2423C2293 2341.81 2227.19 2276 2146 2276Z" fill="#171E22"></path>
<path id="base_2" fill-rule="evenodd" clip-rule="evenodd" d="M643 2276H673V2570H643V2276ZM2293 2423C2293 2504.19 2227.19 2570 2146 2570H2077V2276H2146C2227.19 2276 2293 2341.81 2293 2423ZM2049 2276H1999V2423V2570H2049V2276ZM1162 2276H693V2570H1162V2276Z" fill="#DA9A4D"></path>
<text id="txtBig" fill="#DF8313" xml:space="preserve" style="white-space:pre" font-family="Oswald" font-size="136" letter-spacing="0em"><tspan x="1203" y="2391.47">SHIPYARD&#10;</tspan><tspan x="1203" y="2569.47">BLUEPRINT II</tspan></text>
<text id="txtSmall" fill="black" xml:space="preserve" style="white-space:pre" font-family="Oswald" font-size="80" font-weight="500" letter-spacing="0em"><tspan x="924.906" y="2424.66">COLOR&#10;</tspan><tspan x="883.344" y="2523.66">SCHEME</tspan></text>
</g>
<g id="btnAlertStatus">
<path id="hitarea_2" fill-rule="evenodd" clip-rule="evenodd" d="M2146 1871H643V2165H2146C2227.19 2165 2293 2099.19 2293 2018C2293 1936.81 2227.19 1871 2146 1871Z" fill="#171E22"></path>
<path id="base_3" fill-rule="evenodd" clip-rule="evenodd" d="M643 1871H673V2165H643V1871ZM2293 2018C2293 2099.19 2227.19 2165 2146 2165H2077V1871H2146C2227.19 1871 2293 1936.81 2293 2018ZM2049 1871H1999V2018V2165H2049V1871ZM1162 1871H693V2165H1162V1871Z" fill="#DF8313"></path>
<text id="txtBig_2" fill="#FFF5EB" xml:space="preserve" style="white-space:pre" font-family="Oswald" font-size="136" letter-spacing="0em"><tspan x="1203" y="1986.47">ALERT STATUS&#10;</tspan><tspan x="1203" y="2164.47">NORMAL</tspan></text>
<text id="txtSmall_2" fill="black" xml:space="preserve" style="white-space:pre" font-family="Oswald" font-size="80" font-weight="500" letter-spacing="0em"><tspan x="834.75" y="2123.66">NETWORK</tspan></text>
</g>
<g id="subText">
<text fill="#FFF5C7" xml:space="preserve" style="white-space:pre" font-family="Oswald" font-size="72" font-weight="500" letter-spacing="0.01em"><tspan x="1447.52" y="1696.04">3.14159 265358 97932</tspan></text>
<text fill="#FFF5C7" xml:space="preserve" style="white-space:pre" font-family="Oswald" font-size="72" font-weight="500" letter-spacing="0.01em"><tspan x="668" y="1589.04">BUFFER TEXT  57436.2 &#x2022; RELAY 310 &#x2022; LD&#10;</tspan><tspan x="668" y="1696.04">QUANTUM STREAM / RASP. </tspan></text>
</g>
<rect id="ritosRemoteLogBoxRef" x="651" y="393" width="1720" height="807" fill="#282828"></rect>
<text id="remoteTitle" fill="#FFF5EB" xml:space="preserve" style="white-space:pre" font-family="Oswald" font-size="200" letter-spacing="-0.02em"><tspan x="1163.48" y="245.4">R.I.T.O.S. REMOTE</tspan></text>
</g>
</g>
</svg>
